<svg xmlns="http://www.w3.org/2000/svg" version="1.1" xmlns:xlink="http://www.w3.org/1999/xlink" xmlns:svgjs="http://svgjs.dev/svgjs" width="2500" height="1000" preserveAspectRatio="none" viewBox="0 0 2500 1000"><g mask="url(&quot;#SvgjsMask1498&quot;)" fill="none"><rect width="2500" height="1000" x="0" y="0" fill="url(&quot;#SvgjsLinearGradient1499&quot;)"></rect><path d="M23 1000L1023 0L1771.5 0L771.5 1000z" fill="url(&quot;#SvgjsLinearGradient1500&quot;)"></path><path d="M578 1000L1578 0L2398.5 0L1398.5 1000z" fill="url(&quot;#SvgjsLinearGradient1500&quot;)"></path><path d="M1156 1000L2156 0L2654 0L1654 1000z" fill="url(&quot;#SvgjsLinearGradient1500&quot;)"></path><path d="M2461 1000L1461 0L1258.5 0L2258.5 1000z" fill="url(&quot;#SvgjsLinearGradient1501&quot;)"></path><path d="M1944 1000L944 0L624.5 0L1624.5 1000z" fill="url(&quot;#SvgjsLinearGradient1501&quot;)"></path><path d="M1358 1000L358 0L-17 0L983 1000z" fill="url(&quot;#SvgjsLinearGradient1501&quot;)"></path><path d="M1908.2187959783948 1000L2500 408.21879597839484L2500 1000z" fill="url(&quot;#SvgjsLinearGradient1500&quot;)"></path><path d="M0 1000L591.7812040216052 1000L 0 408.21879597839484z" fill="url(&quot;#SvgjsLinearGradient1501&quot;)"></path></g><defs><mask id="SvgjsMask1498"><rect width="2500" height="1000" fill="#ffffff"></rect></mask><linearGradient x1="0%" y1="50%" x2="100%" y2="50%" gradientUnits="userSpaceOnUse" id="SvgjsLinearGradient1499"><stop stop-color="#0e2a47" offset="0"></stop><stop stop-color="rgba(0, 0, 0, 1)" offset="0"></stop></linearGradient><linearGradient x1="0%" y1="100%" x2="100%" y2="0%" id="SvgjsLinearGradient1500"><stop stop-color="rgba(26, 82, 199, 0.2)" offset="0"></stop><stop stop-opacity="0" stop-color="rgba(26, 82, 199, 0.2)" offset="0.66"></stop></linearGradient><linearGradient x1="100%" y1="100%" x2="0%" y2="0%" id="SvgjsLinearGradient1501"><stop stop-color="rgba(26, 82, 199, 0.2)" offset="0"></stop><stop stop-opacity="0" stop-color="rgba(26, 82, 199, 0.2)" offset="0.66"></stop></linearGradient></defs></svg>